<mxfile host="Electron" modified="2024-05-14T19:41:15.207Z" agent="Mozilla/5.0 (Windows NT 10.0; Win64; x64) AppleWebKit/537.36 (KHTML, like Gecko) draw.io/22.0.3 Chrome/114.0.5735.289 Electron/25.8.4 Safari/537.36" etag="uODv9aEUmPjxkvj2q9_6" version="22.0.3" type="device">
  <diagram id="WVUNeTtc9GkGGyq3254r" name="Страница — 1">
    <mxGraphModel dx="9443" dy="2230" grid="0" gridSize="10" guides="1" tooltips="1" connect="1" arrows="1" fold="1" page="1" pageScale="1" pageWidth="6000" pageHeight="2000" math="0" shadow="0">
      <root>
        <mxCell id="0" />
        <mxCell id="1" parent="0" />
        <mxCell id="M5vJF03o2PQEAF7EAN9n-1" value="main" style="strokeWidth=2;html=1;shape=mxgraph.flowchart.terminator;whiteSpace=wrap;fontSize=10;" parent="1" vertex="1">
          <mxGeometry x="-3832" y="50" width="100" height="50" as="geometry" />
        </mxCell>
        <mxCell id="M5vJF03o2PQEAF7EAN9n-4" value="makeUserHead" style="strokeWidth=2;html=1;shape=mxgraph.flowchart.terminator;whiteSpace=wrap;fontSize=10;" parent="1" vertex="1">
          <mxGeometry x="-767" y="812" width="100" height="50" as="geometry" />
        </mxCell>
        <mxCell id="M5vJF03o2PQEAF7EAN9n-6" value="makeProfessionHead" style="strokeWidth=2;html=1;shape=mxgraph.flowchart.terminator;whiteSpace=wrap;fontSize=10;" parent="1" vertex="1">
          <mxGeometry x="-5929" y="572" width="100" height="50" as="geometry" />
        </mxCell>
        <mxCell id="M5vJF03o2PQEAF7EAN9n-8" value="appGUI" style="strokeWidth=2;html=1;shape=mxgraph.flowchart.terminator;whiteSpace=wrap;fontSize=10;" parent="1" vertex="1">
          <mxGeometry x="-3832" y="174" width="100" height="50" as="geometry" />
        </mxCell>
        <mxCell id="M5vJF03o2PQEAF7EAN9n-18" value="inputIntArray" style="strokeWidth=2;html=1;shape=mxgraph.flowchart.terminator;whiteSpace=wrap;fontSize=10;" parent="1" vertex="1">
          <mxGeometry x="-1665" y="1193" width="100" height="50" as="geometry" />
        </mxCell>
        <mxCell id="M5vJF03o2PQEAF7EAN9n-19" value="getUsersIdList" style="strokeWidth=2;html=1;shape=mxgraph.flowchart.terminator;whiteSpace=wrap;fontSize=10;" parent="1" vertex="1">
          <mxGeometry x="-1665" y="1357" width="100" height="50" as="geometry" />
        </mxCell>
        <mxCell id="M5vJF03o2PQEAF7EAN9n-20" value="cmp" style="strokeWidth=2;html=1;shape=mxgraph.flowchart.terminator;whiteSpace=wrap;fontSize=10;" parent="1" vertex="1">
          <mxGeometry x="-1371" y="1357" width="100" height="50" as="geometry" />
        </mxCell>
        <mxCell id="M5vJF03o2PQEAF7EAN9n-21" value="binarySearch" style="strokeWidth=2;html=1;shape=mxgraph.flowchart.terminator;whiteSpace=wrap;fontSize=10;" parent="1" vertex="1">
          <mxGeometry x="-1518" y="1357" width="100" height="50" as="geometry" />
        </mxCell>
        <mxCell id="M5vJF03o2PQEAF7EAN9n-22" value="startsWithIgnoreCase" style="strokeWidth=2;html=1;shape=mxgraph.flowchart.terminator;whiteSpace=wrap;fontSize=10;" parent="1" vertex="1">
          <mxGeometry x="-3707" y="1008" width="100" height="50" as="geometry" />
        </mxCell>
        <mxCell id="M5vJF03o2PQEAF7EAN9n-24" value="deleteProfessionGUI" style="strokeWidth=2;html=1;shape=mxgraph.flowchart.terminator;whiteSpace=wrap;fontSize=10;" parent="1" vertex="1">
          <mxGeometry x="-5012" y="311" width="100" height="50" as="geometry" />
        </mxCell>
        <mxCell id="M5vJF03o2PQEAF7EAN9n-25" value="addProfessionGUI" style="strokeWidth=2;html=1;shape=mxgraph.flowchart.terminator;whiteSpace=wrap;fontSize=10;" parent="1" vertex="1">
          <mxGeometry x="-5317" y="309" width="100" height="50" as="geometry" />
        </mxCell>
        <mxCell id="M5vJF03o2PQEAF7EAN9n-26" value="specifyUserNameGUI" style="strokeWidth=2;html=1;shape=mxgraph.flowchart.terminator;whiteSpace=wrap;fontSize=10;" parent="1" vertex="1">
          <mxGeometry x="-2375" y="831" width="100" height="50" as="geometry" />
        </mxCell>
        <mxCell id="M5vJF03o2PQEAF7EAN9n-27" value="specifyUserAgeGUI" style="strokeWidth=2;html=1;shape=mxgraph.flowchart.terminator;whiteSpace=wrap;fontSize=10;" parent="1" vertex="1">
          <mxGeometry x="-2235" y="831" width="100" height="50" as="geometry" />
        </mxCell>
        <mxCell id="M5vJF03o2PQEAF7EAN9n-28" value="specifyUserProfession&lt;br style=&quot;border-color: var(--border-color);&quot;&gt;GUI" style="strokeWidth=2;html=1;shape=mxgraph.flowchart.terminator;whiteSpace=wrap;fontSize=10;" parent="1" vertex="1">
          <mxGeometry x="-2512" y="831" width="100" height="50" as="geometry" />
        </mxCell>
        <mxCell id="M5vJF03o2PQEAF7EAN9n-29" value="specifyUser&lt;br&gt;FriendsRatingGUI" style="strokeWidth=2;html=1;shape=mxgraph.flowchart.terminator;whiteSpace=wrap;fontSize=10;" parent="1" vertex="1">
          <mxGeometry x="-2068" y="831" width="100" height="50" as="geometry" />
        </mxCell>
        <mxCell id="M5vJF03o2PQEAF7EAN9n-30" value="specifyUser&lt;br&gt;PublicRatingGUI" style="strokeWidth=2;html=1;shape=mxgraph.flowchart.terminator;whiteSpace=wrap;fontSize=10;" parent="1" vertex="1">
          <mxGeometry x="-1935" y="831" width="100" height="50" as="geometry" />
        </mxCell>
        <mxCell id="M5vJF03o2PQEAF7EAN9n-31" value="specifyUser&lt;br&gt;FriendsGUI" style="strokeWidth=2;html=1;shape=mxgraph.flowchart.terminator;whiteSpace=wrap;fontSize=10;" parent="1" vertex="1">
          <mxGeometry x="-1801" y="829" width="100" height="50" as="geometry" />
        </mxCell>
        <mxCell id="M5vJF03o2PQEAF7EAN9n-32" value="updateUserDataGUI" style="strokeWidth=2;html=1;shape=mxgraph.flowchart.terminator;whiteSpace=wrap;fontSize=10;" parent="1" vertex="1">
          <mxGeometry x="-2160" y="309" width="100" height="50" as="geometry" />
        </mxCell>
        <mxCell id="M5vJF03o2PQEAF7EAN9n-33" value="addUserGUI" style="strokeWidth=2;html=1;shape=mxgraph.flowchart.terminator;whiteSpace=wrap;fontSize=10;" parent="1" vertex="1">
          <mxGeometry x="-1480" y="316" width="100" height="50" as="geometry" />
        </mxCell>
        <mxCell id="M5vJF03o2PQEAF7EAN9n-36" value="clearProfession&lt;br&gt;ListGUI" style="strokeWidth=2;html=1;shape=mxgraph.flowchart.terminator;whiteSpace=wrap;fontSize=10;" parent="1" vertex="1">
          <mxGeometry x="-4625" y="311" width="100" height="50" as="geometry" />
        </mxCell>
        <mxCell id="M5vJF03o2PQEAF7EAN9n-37" value="clearUser&lt;br&gt;ListGUI" style="strokeWidth=2;html=1;shape=mxgraph.flowchart.terminator;whiteSpace=wrap;fontSize=10;" parent="1" vertex="1">
          <mxGeometry x="-2929" y="311" width="100" height="50" as="geometry" />
        </mxCell>
        <mxCell id="M5vJF03o2PQEAF7EAN9n-53" value="makeProfessionNode" style="strokeWidth=2;html=1;shape=mxgraph.flowchart.terminator;whiteSpace=wrap;fontSize=10;" parent="1" vertex="1">
          <mxGeometry x="-5630" y="762" width="100" height="50" as="geometry" />
        </mxCell>
        <mxCell id="M5vJF03o2PQEAF7EAN9n-54" value="pushBack&lt;br&gt;ProfessionNode" style="strokeWidth=2;html=1;shape=mxgraph.flowchart.terminator;whiteSpace=wrap;fontSize=10;" parent="1" vertex="1">
          <mxGeometry x="-5317" y="762" width="100" height="50" as="geometry" />
        </mxCell>
        <mxCell id="M5vJF03o2PQEAF7EAN9n-55" value="deleteProfessionNode" style="strokeWidth=2;html=1;shape=mxgraph.flowchart.terminator;whiteSpace=wrap;fontSize=10;" parent="1" vertex="1">
          <mxGeometry x="-4902" y="569" width="100" height="50" as="geometry" />
        </mxCell>
        <mxCell id="M5vJF03o2PQEAF7EAN9n-56" value="freeProfessionList" style="strokeWidth=2;html=1;shape=mxgraph.flowchart.terminator;whiteSpace=wrap;fontSize=10;" parent="1" vertex="1">
          <mxGeometry x="-4625" y="572" width="100" height="50" as="geometry" />
        </mxCell>
        <mxCell id="M5vJF03o2PQEAF7EAN9n-57" value="readProfessions" style="strokeWidth=2;html=1;shape=mxgraph.flowchart.terminator;whiteSpace=wrap;fontSize=10;" parent="1" vertex="1">
          <mxGeometry x="-5513" y="569" width="100" height="50" as="geometry" />
        </mxCell>
        <mxCell id="M5vJF03o2PQEAF7EAN9n-58" value="findProfessionById" style="strokeWidth=2;html=1;shape=mxgraph.flowchart.terminator;whiteSpace=wrap;fontSize=10;" parent="1" vertex="1">
          <mxGeometry x="-4744" y="572" width="100" height="50" as="geometry" />
        </mxCell>
        <mxCell id="M5vJF03o2PQEAF7EAN9n-59" value="findProfession&lt;br&gt;ByName" style="strokeWidth=2;html=1;shape=mxgraph.flowchart.terminator;whiteSpace=wrap;fontSize=10;" parent="1" vertex="1">
          <mxGeometry x="-1105" y="1189" width="100" height="50" as="geometry" />
        </mxCell>
        <mxCell id="M5vJF03o2PQEAF7EAN9n-60" value="writeProfessions&lt;br&gt;ToFile" style="strokeWidth=2;html=1;shape=mxgraph.flowchart.terminator;whiteSpace=wrap;fontSize=10;" parent="1" vertex="1">
          <mxGeometry x="-5201" y="569" width="100" height="50" as="geometry" />
        </mxCell>
        <mxCell id="M5vJF03o2PQEAF7EAN9n-61" value="freeUserList" style="strokeWidth=2;html=1;shape=mxgraph.flowchart.terminator;whiteSpace=wrap;fontSize=10;" parent="1" vertex="1">
          <mxGeometry x="-2929" y="829" width="100" height="50" as="geometry" />
        </mxCell>
        <mxCell id="M5vJF03o2PQEAF7EAN9n-62" value="freeUserStruct" style="strokeWidth=2;html=1;shape=mxgraph.flowchart.terminator;whiteSpace=wrap;fontSize=10;direction=west;" parent="1" vertex="1">
          <mxGeometry x="-3029" y="1008" width="100" height="50" as="geometry" />
        </mxCell>
        <mxCell id="M5vJF03o2PQEAF7EAN9n-63" value="clearUsers&lt;br&gt;ProfessionById" style="strokeWidth=2;html=1;shape=mxgraph.flowchart.terminator;whiteSpace=wrap;fontSize=10;" parent="1" vertex="1">
          <mxGeometry x="-4821" y="838" width="100" height="50" as="geometry" />
        </mxCell>
        <mxCell id="M5vJF03o2PQEAF7EAN9n-65" value="readUsers" style="strokeWidth=2;html=1;shape=mxgraph.flowchart.terminator;whiteSpace=wrap;fontSize=10;" parent="1" vertex="1">
          <mxGeometry x="-1338" y="816" width="100" height="50" as="geometry" />
        </mxCell>
        <mxCell id="M5vJF03o2PQEAF7EAN9n-66" value="findUserById" style="strokeWidth=2;html=1;shape=mxgraph.flowchart.terminator;whiteSpace=wrap;fontSize=10;" parent="1" vertex="1">
          <mxGeometry x="-2654" y="1189" width="100" height="50" as="geometry" />
        </mxCell>
        <mxCell id="M5vJF03o2PQEAF7EAN9n-68" value="filterUsers&lt;br&gt;ByPublicRating" style="strokeWidth=2;html=1;shape=mxgraph.flowchart.terminator;whiteSpace=wrap;fontSize=10;" parent="1" vertex="1">
          <mxGeometry x="-4298" y="839" width="100" height="50" as="geometry" />
        </mxCell>
        <mxCell id="M5vJF03o2PQEAF7EAN9n-69" value="filterUsersBy&lt;br&gt;FriendsRating" style="strokeWidth=2;html=1;shape=mxgraph.flowchart.terminator;whiteSpace=wrap;fontSize=10;" parent="1" vertex="1">
          <mxGeometry x="-4164" y="839" width="100" height="50" as="geometry" />
        </mxCell>
        <mxCell id="M5vJF03o2PQEAF7EAN9n-70" value="filterUsersByAge" style="strokeWidth=2;html=1;shape=mxgraph.flowchart.terminator;whiteSpace=wrap;fontSize=10;" parent="1" vertex="1">
          <mxGeometry x="-4033" y="839" width="100" height="50" as="geometry" />
        </mxCell>
        <mxCell id="M5vJF03o2PQEAF7EAN9n-71" value="filterUsersBy&lt;br&gt;FriendsCount" style="strokeWidth=2;html=1;shape=mxgraph.flowchart.terminator;whiteSpace=wrap;fontSize=10;" parent="1" vertex="1">
          <mxGeometry x="-3899" y="839" width="100" height="50" as="geometry" />
        </mxCell>
        <mxCell id="M5vJF03o2PQEAF7EAN9n-72" value="filterUsersBy&lt;br&gt;ProfessionName" style="strokeWidth=2;html=1;shape=mxgraph.flowchart.terminator;whiteSpace=wrap;fontSize=10;" parent="1" vertex="1">
          <mxGeometry x="-3783" y="839" width="100" height="50" as="geometry" />
        </mxCell>
        <mxCell id="M5vJF03o2PQEAF7EAN9n-73" value="filterUsersByName" style="strokeWidth=2;html=1;shape=mxgraph.flowchart.terminator;whiteSpace=wrap;fontSize=10;" parent="1" vertex="1">
          <mxGeometry x="-3637" y="839" width="100" height="50" as="geometry" />
        </mxCell>
        <mxCell id="M5vJF03o2PQEAF7EAN9n-74" value="deleteUserNode" style="strokeWidth=2;html=1;shape=mxgraph.flowchart.terminator;whiteSpace=wrap;fontSize=10;" parent="1" vertex="1">
          <mxGeometry x="-3135" y="826" width="100" height="50" as="geometry" />
        </mxCell>
        <mxCell id="M5vJF03o2PQEAF7EAN9n-75" value="compareUsers" style="strokeWidth=2;html=1;shape=mxgraph.flowchart.terminator;whiteSpace=wrap;fontSize=10;" parent="1" vertex="1">
          <mxGeometry x="-3406" y="1008" width="100" height="50" as="geometry" />
        </mxCell>
        <mxCell id="M5vJF03o2PQEAF7EAN9n-76" value="sortUsersByField" style="strokeWidth=2;html=1;shape=mxgraph.flowchart.terminator;whiteSpace=wrap;fontSize=10;" parent="1" vertex="1">
          <mxGeometry x="-3406" y="829" width="100" height="50" as="geometry" />
        </mxCell>
        <mxCell id="M5vJF03o2PQEAF7EAN9n-78" value="writeUsersToFile" style="strokeWidth=2;html=1;shape=mxgraph.flowchart.terminator;whiteSpace=wrap;fontSize=10;" parent="1" vertex="1">
          <mxGeometry x="-4519" y="838" width="100" height="50" as="geometry" />
        </mxCell>
        <mxCell id="M5vJF03o2PQEAF7EAN9n-82" value="filterUsersByFieldGUI" style="strokeWidth=2;html=1;shape=mxgraph.flowchart.terminator;whiteSpace=wrap;fontSize=10;" parent="1" vertex="1">
          <mxGeometry x="-4298" y="319" width="100" height="50" as="geometry" />
        </mxCell>
        <mxCell id="M5vJF03o2PQEAF7EAN9n-84" value="deleteUserGUI" style="strokeWidth=2;html=1;shape=mxgraph.flowchart.terminator;whiteSpace=wrap;fontSize=10;" parent="1" vertex="1">
          <mxGeometry x="-3221" y="309" width="100" height="50" as="geometry" />
        </mxCell>
        <mxCell id="M5vJF03o2PQEAF7EAN9n-85" value="makeUserNode" style="strokeWidth=2;html=1;shape=mxgraph.flowchart.terminator;whiteSpace=wrap;fontSize=10;" parent="1" vertex="1">
          <mxGeometry x="-1264" y="1000" width="100" height="50" as="geometry" />
        </mxCell>
        <mxCell id="M5vJF03o2PQEAF7EAN9n-87" value="pushBackUserNode" style="strokeWidth=2;html=1;shape=mxgraph.flowchart.terminator;whiteSpace=wrap;fontSize=10;" parent="1" vertex="1">
          <mxGeometry x="-1480" y="1000" width="100" height="50" as="geometry" />
        </mxCell>
        <mxCell id="5CwEVVTh2fKSS4IKN6zt-1" style="edgeStyle=orthogonalEdgeStyle;rounded=0;orthogonalLoop=1;jettySize=auto;html=1;entryX=0.5;entryY=0;entryDx=0;entryDy=0;entryPerimeter=0;exitX=0.5;exitY=1;exitDx=0;exitDy=0;exitPerimeter=0;" edge="1" parent="1" source="M5vJF03o2PQEAF7EAN9n-1" target="M5vJF03o2PQEAF7EAN9n-8">
          <mxGeometry relative="1" as="geometry">
            <mxPoint x="-3824" y="143" as="sourcePoint" />
            <Array as="points">
              <mxPoint x="-3782" y="153" />
              <mxPoint x="-3782" y="153" />
            </Array>
          </mxGeometry>
        </mxCell>
        <mxCell id="5CwEVVTh2fKSS4IKN6zt-2" style="edgeStyle=orthogonalEdgeStyle;rounded=0;orthogonalLoop=1;jettySize=auto;html=1;entryX=0.5;entryY=0;entryDx=0;entryDy=0;entryPerimeter=0;" edge="1" parent="1" source="M5vJF03o2PQEAF7EAN9n-1" target="M5vJF03o2PQEAF7EAN9n-6">
          <mxGeometry relative="1" as="geometry">
            <Array as="points">
              <mxPoint x="-3782" y="129" />
              <mxPoint x="-5879" y="129" />
            </Array>
          </mxGeometry>
        </mxCell>
        <mxCell id="5CwEVVTh2fKSS4IKN6zt-3" style="edgeStyle=orthogonalEdgeStyle;rounded=0;orthogonalLoop=1;jettySize=auto;html=1;entryX=0.5;entryY=0;entryDx=0;entryDy=0;entryPerimeter=0;" edge="1" parent="1" source="M5vJF03o2PQEAF7EAN9n-1" target="M5vJF03o2PQEAF7EAN9n-4">
          <mxGeometry relative="1" as="geometry">
            <Array as="points">
              <mxPoint x="-3782" y="129" />
              <mxPoint x="-717" y="129" />
            </Array>
          </mxGeometry>
        </mxCell>
        <mxCell id="5CwEVVTh2fKSS4IKN6zt-5" style="edgeStyle=orthogonalEdgeStyle;rounded=0;orthogonalLoop=1;jettySize=auto;html=1;entryX=0.5;entryY=0;entryDx=0;entryDy=0;entryPerimeter=0;" edge="1" parent="1" source="M5vJF03o2PQEAF7EAN9n-8" target="M5vJF03o2PQEAF7EAN9n-25">
          <mxGeometry relative="1" as="geometry">
            <Array as="points">
              <mxPoint x="-3782" y="265" />
              <mxPoint x="-5267" y="265" />
            </Array>
          </mxGeometry>
        </mxCell>
        <mxCell id="5CwEVVTh2fKSS4IKN6zt-6" style="edgeStyle=orthogonalEdgeStyle;rounded=0;orthogonalLoop=1;jettySize=auto;html=1;entryX=0.5;entryY=0;entryDx=0;entryDy=0;entryPerimeter=0;" edge="1" parent="1" source="M5vJF03o2PQEAF7EAN9n-8" target="M5vJF03o2PQEAF7EAN9n-33">
          <mxGeometry relative="1" as="geometry">
            <Array as="points">
              <mxPoint x="-3782" y="265" />
              <mxPoint x="-1430" y="265" />
            </Array>
          </mxGeometry>
        </mxCell>
        <mxCell id="5CwEVVTh2fKSS4IKN6zt-8" style="edgeStyle=orthogonalEdgeStyle;rounded=0;orthogonalLoop=1;jettySize=auto;html=1;entryX=0.5;entryY=0;entryDx=0;entryDy=0;entryPerimeter=0;" edge="1" parent="1" source="M5vJF03o2PQEAF7EAN9n-8" target="M5vJF03o2PQEAF7EAN9n-32">
          <mxGeometry relative="1" as="geometry">
            <Array as="points">
              <mxPoint x="-4484" y="265" />
              <mxPoint x="-3697" y="265" />
            </Array>
          </mxGeometry>
        </mxCell>
        <mxCell id="5CwEVVTh2fKSS4IKN6zt-9" style="edgeStyle=orthogonalEdgeStyle;rounded=0;orthogonalLoop=1;jettySize=auto;html=1;entryX=0.5;entryY=0;entryDx=0;entryDy=0;entryPerimeter=0;" edge="1" parent="1" source="M5vJF03o2PQEAF7EAN9n-8" target="M5vJF03o2PQEAF7EAN9n-82">
          <mxGeometry relative="1" as="geometry">
            <Array as="points">
              <mxPoint x="-3782" y="265" />
              <mxPoint x="-4248" y="265" />
            </Array>
          </mxGeometry>
        </mxCell>
        <mxCell id="5CwEVVTh2fKSS4IKN6zt-11" style="edgeStyle=orthogonalEdgeStyle;rounded=0;orthogonalLoop=1;jettySize=auto;html=1;exitX=0.5;exitY=1;exitDx=0;exitDy=0;exitPerimeter=0;entryX=0.5;entryY=0;entryDx=0;entryDy=0;entryPerimeter=0;" edge="1" parent="1" source="M5vJF03o2PQEAF7EAN9n-8" target="M5vJF03o2PQEAF7EAN9n-84">
          <mxGeometry relative="1" as="geometry">
            <Array as="points">
              <mxPoint x="-3782" y="265" />
              <mxPoint x="-3171" y="265" />
            </Array>
          </mxGeometry>
        </mxCell>
        <mxCell id="5CwEVVTh2fKSS4IKN6zt-13" style="edgeStyle=orthogonalEdgeStyle;rounded=0;orthogonalLoop=1;jettySize=auto;html=1;exitX=0.5;exitY=1;exitDx=0;exitDy=0;exitPerimeter=0;entryX=0.5;entryY=0;entryDx=0;entryDy=0;entryPerimeter=0;" edge="1" parent="1" source="M5vJF03o2PQEAF7EAN9n-8" target="M5vJF03o2PQEAF7EAN9n-37">
          <mxGeometry relative="1" as="geometry">
            <Array as="points">
              <mxPoint x="-3782" y="265" />
              <mxPoint x="-2879" y="265" />
            </Array>
          </mxGeometry>
        </mxCell>
        <mxCell id="5CwEVVTh2fKSS4IKN6zt-14" style="edgeStyle=orthogonalEdgeStyle;rounded=0;orthogonalLoop=1;jettySize=auto;html=1;entryX=0.5;entryY=0;entryDx=0;entryDy=0;entryPerimeter=0;" edge="1" parent="1" source="M5vJF03o2PQEAF7EAN9n-32" target="M5vJF03o2PQEAF7EAN9n-28">
          <mxGeometry relative="1" as="geometry">
            <Array as="points">
              <mxPoint x="-2109" y="388" />
              <mxPoint x="-2462" y="388" />
            </Array>
          </mxGeometry>
        </mxCell>
        <mxCell id="5CwEVVTh2fKSS4IKN6zt-15" style="edgeStyle=orthogonalEdgeStyle;rounded=0;orthogonalLoop=1;jettySize=auto;html=1;entryX=0.5;entryY=0;entryDx=0;entryDy=0;entryPerimeter=0;" edge="1" parent="1" source="M5vJF03o2PQEAF7EAN9n-32" target="M5vJF03o2PQEAF7EAN9n-26">
          <mxGeometry relative="1" as="geometry">
            <Array as="points">
              <mxPoint x="-2109" y="388" />
              <mxPoint x="-2325" y="388" />
            </Array>
          </mxGeometry>
        </mxCell>
        <mxCell id="5CwEVVTh2fKSS4IKN6zt-16" style="edgeStyle=orthogonalEdgeStyle;rounded=0;orthogonalLoop=1;jettySize=auto;html=1;entryX=0.5;entryY=0;entryDx=0;entryDy=0;entryPerimeter=0;" edge="1" parent="1" source="M5vJF03o2PQEAF7EAN9n-32" target="M5vJF03o2PQEAF7EAN9n-27">
          <mxGeometry relative="1" as="geometry">
            <Array as="points">
              <mxPoint x="-2109" y="388" />
              <mxPoint x="-2185" y="388" />
            </Array>
          </mxGeometry>
        </mxCell>
        <mxCell id="5CwEVVTh2fKSS4IKN6zt-17" style="edgeStyle=orthogonalEdgeStyle;rounded=0;orthogonalLoop=1;jettySize=auto;html=1;entryX=0.5;entryY=0;entryDx=0;entryDy=0;entryPerimeter=0;" edge="1" parent="1" source="M5vJF03o2PQEAF7EAN9n-32" target="M5vJF03o2PQEAF7EAN9n-29">
          <mxGeometry relative="1" as="geometry">
            <Array as="points">
              <mxPoint x="-2109" y="388" />
              <mxPoint x="-2018" y="388" />
            </Array>
          </mxGeometry>
        </mxCell>
        <mxCell id="5CwEVVTh2fKSS4IKN6zt-18" style="edgeStyle=orthogonalEdgeStyle;rounded=0;orthogonalLoop=1;jettySize=auto;html=1;entryX=0.5;entryY=0;entryDx=0;entryDy=0;entryPerimeter=0;" edge="1" parent="1" source="M5vJF03o2PQEAF7EAN9n-32" target="M5vJF03o2PQEAF7EAN9n-30">
          <mxGeometry relative="1" as="geometry">
            <Array as="points">
              <mxPoint x="-2109" y="388" />
              <mxPoint x="-1885" y="388" />
            </Array>
          </mxGeometry>
        </mxCell>
        <mxCell id="5CwEVVTh2fKSS4IKN6zt-19" style="edgeStyle=orthogonalEdgeStyle;rounded=0;orthogonalLoop=1;jettySize=auto;html=1;entryX=0.5;entryY=0;entryDx=0;entryDy=0;entryPerimeter=0;" edge="1" parent="1" source="M5vJF03o2PQEAF7EAN9n-32" target="M5vJF03o2PQEAF7EAN9n-31">
          <mxGeometry relative="1" as="geometry">
            <Array as="points">
              <mxPoint x="-2109" y="388" />
              <mxPoint x="-1751" y="388" />
            </Array>
          </mxGeometry>
        </mxCell>
        <mxCell id="5CwEVVTh2fKSS4IKN6zt-20" style="edgeStyle=orthogonalEdgeStyle;rounded=0;orthogonalLoop=1;jettySize=auto;html=1;entryX=0.5;entryY=0;entryDx=0;entryDy=0;entryPerimeter=0;" edge="1" parent="1" source="M5vJF03o2PQEAF7EAN9n-8" target="M5vJF03o2PQEAF7EAN9n-24">
          <mxGeometry relative="1" as="geometry">
            <Array as="points">
              <mxPoint x="-3782" y="265" />
              <mxPoint x="-4962" y="265" />
            </Array>
          </mxGeometry>
        </mxCell>
        <mxCell id="5CwEVVTh2fKSS4IKN6zt-21" style="edgeStyle=orthogonalEdgeStyle;rounded=0;orthogonalLoop=1;jettySize=auto;html=1;entryX=0.5;entryY=0;entryDx=0;entryDy=0;entryPerimeter=0;" edge="1" parent="1" source="M5vJF03o2PQEAF7EAN9n-8" target="M5vJF03o2PQEAF7EAN9n-36">
          <mxGeometry relative="1" as="geometry">
            <Array as="points">
              <mxPoint x="-3782" y="265" />
              <mxPoint x="-4575" y="265" />
            </Array>
          </mxGeometry>
        </mxCell>
        <mxCell id="5CwEVVTh2fKSS4IKN6zt-22" style="edgeStyle=orthogonalEdgeStyle;rounded=0;orthogonalLoop=1;jettySize=auto;html=1;entryX=0.5;entryY=0;entryDx=0;entryDy=0;entryPerimeter=0;" edge="1" parent="1" source="M5vJF03o2PQEAF7EAN9n-8" target="M5vJF03o2PQEAF7EAN9n-57">
          <mxGeometry relative="1" as="geometry">
            <Array as="points">
              <mxPoint x="-3782" y="265" />
              <mxPoint x="-5463" y="265" />
            </Array>
          </mxGeometry>
        </mxCell>
        <mxCell id="5CwEVVTh2fKSS4IKN6zt-25" style="edgeStyle=orthogonalEdgeStyle;rounded=0;orthogonalLoop=1;jettySize=auto;html=1;entryX=0.5;entryY=0;entryDx=0;entryDy=0;entryPerimeter=0;" edge="1" parent="1" source="M5vJF03o2PQEAF7EAN9n-8" target="M5vJF03o2PQEAF7EAN9n-60">
          <mxGeometry relative="1" as="geometry">
            <Array as="points">
              <mxPoint x="-3782" y="265" />
              <mxPoint x="-5151" y="265" />
            </Array>
          </mxGeometry>
        </mxCell>
        <mxCell id="5CwEVVTh2fKSS4IKN6zt-26" style="edgeStyle=orthogonalEdgeStyle;rounded=0;orthogonalLoop=1;jettySize=auto;html=1;entryX=0.5;entryY=0;entryDx=0;entryDy=0;entryPerimeter=0;" edge="1" parent="1" source="M5vJF03o2PQEAF7EAN9n-36" target="M5vJF03o2PQEAF7EAN9n-56">
          <mxGeometry relative="1" as="geometry" />
        </mxCell>
        <mxCell id="5CwEVVTh2fKSS4IKN6zt-28" style="edgeStyle=orthogonalEdgeStyle;rounded=0;orthogonalLoop=1;jettySize=auto;html=1;entryX=0.5;entryY=0;entryDx=0;entryDy=0;entryPerimeter=0;" edge="1" parent="1" source="M5vJF03o2PQEAF7EAN9n-24" target="M5vJF03o2PQEAF7EAN9n-55">
          <mxGeometry relative="1" as="geometry">
            <Array as="points">
              <mxPoint x="-4962" y="509" />
              <mxPoint x="-4852" y="509" />
            </Array>
          </mxGeometry>
        </mxCell>
        <mxCell id="5CwEVVTh2fKSS4IKN6zt-29" style="edgeStyle=orthogonalEdgeStyle;rounded=0;orthogonalLoop=1;jettySize=auto;html=1;entryX=0.5;entryY=0;entryDx=0;entryDy=0;entryPerimeter=0;" edge="1" parent="1" source="M5vJF03o2PQEAF7EAN9n-24" target="M5vJF03o2PQEAF7EAN9n-58">
          <mxGeometry relative="1" as="geometry">
            <Array as="points">
              <mxPoint x="-4962" y="509" />
              <mxPoint x="-4694" y="509" />
            </Array>
          </mxGeometry>
        </mxCell>
        <mxCell id="5CwEVVTh2fKSS4IKN6zt-30" style="edgeStyle=orthogonalEdgeStyle;rounded=0;orthogonalLoop=1;jettySize=auto;html=1;entryX=0.5;entryY=0;entryDx=0;entryDy=0;entryPerimeter=0;" edge="1" parent="1" source="M5vJF03o2PQEAF7EAN9n-57" target="M5vJF03o2PQEAF7EAN9n-53">
          <mxGeometry relative="1" as="geometry">
            <Array as="points">
              <mxPoint x="-5463" y="688" />
              <mxPoint x="-5580" y="688" />
            </Array>
          </mxGeometry>
        </mxCell>
        <mxCell id="5CwEVVTh2fKSS4IKN6zt-31" style="edgeStyle=orthogonalEdgeStyle;rounded=0;orthogonalLoop=1;jettySize=auto;html=1;entryX=0.5;entryY=0;entryDx=0;entryDy=0;entryPerimeter=0;" edge="1" parent="1" source="M5vJF03o2PQEAF7EAN9n-57" target="M5vJF03o2PQEAF7EAN9n-54">
          <mxGeometry relative="1" as="geometry">
            <Array as="points">
              <mxPoint x="-5463" y="720" />
              <mxPoint x="-5267" y="720" />
            </Array>
          </mxGeometry>
        </mxCell>
        <mxCell id="5CwEVVTh2fKSS4IKN6zt-32" style="edgeStyle=orthogonalEdgeStyle;rounded=0;orthogonalLoop=1;jettySize=auto;html=1;entryX=0.5;entryY=0;entryDx=0;entryDy=0;entryPerimeter=0;" edge="1" parent="1" source="M5vJF03o2PQEAF7EAN9n-25" target="M5vJF03o2PQEAF7EAN9n-54">
          <mxGeometry relative="1" as="geometry">
            <Array as="points">
              <mxPoint x="-5267" y="736" />
              <mxPoint x="-5267" y="736" />
            </Array>
          </mxGeometry>
        </mxCell>
        <mxCell id="5CwEVVTh2fKSS4IKN6zt-36" style="edgeStyle=orthogonalEdgeStyle;rounded=0;orthogonalLoop=1;jettySize=auto;html=1;entryX=0.5;entryY=0;entryDx=0;entryDy=0;entryPerimeter=0;" edge="1" parent="1" source="M5vJF03o2PQEAF7EAN9n-8" target="M5vJF03o2PQEAF7EAN9n-78">
          <mxGeometry relative="1" as="geometry">
            <Array as="points">
              <mxPoint x="-3782" y="265" />
              <mxPoint x="-4469" y="265" />
            </Array>
          </mxGeometry>
        </mxCell>
        <mxCell id="5CwEVVTh2fKSS4IKN6zt-37" style="edgeStyle=orthogonalEdgeStyle;rounded=0;orthogonalLoop=1;jettySize=auto;html=1;entryX=0.5;entryY=0;entryDx=0;entryDy=0;entryPerimeter=0;" edge="1" parent="1" source="M5vJF03o2PQEAF7EAN9n-82" target="M5vJF03o2PQEAF7EAN9n-68">
          <mxGeometry relative="1" as="geometry" />
        </mxCell>
        <mxCell id="5CwEVVTh2fKSS4IKN6zt-38" style="edgeStyle=orthogonalEdgeStyle;rounded=0;orthogonalLoop=1;jettySize=auto;html=1;entryX=0.5;entryY=0;entryDx=0;entryDy=0;entryPerimeter=0;" edge="1" parent="1" source="M5vJF03o2PQEAF7EAN9n-82" target="M5vJF03o2PQEAF7EAN9n-69">
          <mxGeometry relative="1" as="geometry">
            <Array as="points">
              <mxPoint x="-4248" y="763" />
              <mxPoint x="-4114" y="763" />
            </Array>
          </mxGeometry>
        </mxCell>
        <mxCell id="5CwEVVTh2fKSS4IKN6zt-39" style="edgeStyle=orthogonalEdgeStyle;rounded=0;orthogonalLoop=1;jettySize=auto;html=1;entryX=0.5;entryY=0;entryDx=0;entryDy=0;entryPerimeter=0;" edge="1" parent="1" source="M5vJF03o2PQEAF7EAN9n-82" target="M5vJF03o2PQEAF7EAN9n-70">
          <mxGeometry relative="1" as="geometry">
            <Array as="points">
              <mxPoint x="-4248" y="763" />
              <mxPoint x="-3983" y="763" />
            </Array>
          </mxGeometry>
        </mxCell>
        <mxCell id="5CwEVVTh2fKSS4IKN6zt-40" style="edgeStyle=orthogonalEdgeStyle;rounded=0;orthogonalLoop=1;jettySize=auto;html=1;entryX=0.5;entryY=0;entryDx=0;entryDy=0;entryPerimeter=0;" edge="1" parent="1" source="M5vJF03o2PQEAF7EAN9n-82" target="M5vJF03o2PQEAF7EAN9n-71">
          <mxGeometry relative="1" as="geometry">
            <Array as="points">
              <mxPoint x="-4248" y="763" />
              <mxPoint x="-3849" y="763" />
            </Array>
          </mxGeometry>
        </mxCell>
        <mxCell id="5CwEVVTh2fKSS4IKN6zt-41" style="edgeStyle=orthogonalEdgeStyle;rounded=0;orthogonalLoop=1;jettySize=auto;html=1;entryX=0.5;entryY=0;entryDx=0;entryDy=0;entryPerimeter=0;" edge="1" parent="1" source="M5vJF03o2PQEAF7EAN9n-82" target="M5vJF03o2PQEAF7EAN9n-72">
          <mxGeometry relative="1" as="geometry">
            <Array as="points">
              <mxPoint x="-4248" y="763" />
              <mxPoint x="-3733" y="763" />
            </Array>
          </mxGeometry>
        </mxCell>
        <mxCell id="5CwEVVTh2fKSS4IKN6zt-42" style="edgeStyle=orthogonalEdgeStyle;rounded=0;orthogonalLoop=1;jettySize=auto;html=1;entryX=0.5;entryY=0;entryDx=0;entryDy=0;entryPerimeter=0;" edge="1" parent="1" source="M5vJF03o2PQEAF7EAN9n-82" target="M5vJF03o2PQEAF7EAN9n-73">
          <mxGeometry relative="1" as="geometry">
            <Array as="points">
              <mxPoint x="-4248" y="763" />
              <mxPoint x="-3587" y="763" />
            </Array>
          </mxGeometry>
        </mxCell>
        <mxCell id="5CwEVVTh2fKSS4IKN6zt-44" style="edgeStyle=orthogonalEdgeStyle;rounded=0;orthogonalLoop=1;jettySize=auto;html=1;entryX=0.5;entryY=0;entryDx=0;entryDy=0;entryPerimeter=0;" edge="1" parent="1" source="M5vJF03o2PQEAF7EAN9n-65" target="M5vJF03o2PQEAF7EAN9n-87">
          <mxGeometry relative="1" as="geometry">
            <Array as="points">
              <mxPoint x="-1288" y="901" />
              <mxPoint x="-1430" y="901" />
            </Array>
          </mxGeometry>
        </mxCell>
        <mxCell id="5CwEVVTh2fKSS4IKN6zt-45" style="edgeStyle=orthogonalEdgeStyle;rounded=0;orthogonalLoop=1;jettySize=auto;html=1;entryX=0.5;entryY=0;entryDx=0;entryDy=0;entryPerimeter=0;" edge="1" parent="1" source="M5vJF03o2PQEAF7EAN9n-65" target="M5vJF03o2PQEAF7EAN9n-85">
          <mxGeometry relative="1" as="geometry">
            <mxPoint x="-1131" y="978" as="targetPoint" />
            <Array as="points">
              <mxPoint x="-1288" y="939" />
              <mxPoint x="-1215" y="939" />
            </Array>
          </mxGeometry>
        </mxCell>
        <mxCell id="5CwEVVTh2fKSS4IKN6zt-46" style="edgeStyle=orthogonalEdgeStyle;rounded=0;orthogonalLoop=1;jettySize=auto;html=1;entryX=0.5;entryY=0;entryDx=0;entryDy=0;entryPerimeter=0;" edge="1" parent="1" source="M5vJF03o2PQEAF7EAN9n-33" target="M5vJF03o2PQEAF7EAN9n-87">
          <mxGeometry relative="1" as="geometry">
            <Array as="points">
              <mxPoint x="-1430" y="617" />
              <mxPoint x="-1430" y="617" />
            </Array>
          </mxGeometry>
        </mxCell>
        <mxCell id="5CwEVVTh2fKSS4IKN6zt-47" style="edgeStyle=orthogonalEdgeStyle;rounded=0;orthogonalLoop=1;jettySize=auto;html=1;entryX=0.5;entryY=0;entryDx=0;entryDy=0;entryPerimeter=0;" edge="1" parent="1" source="M5vJF03o2PQEAF7EAN9n-8" target="M5vJF03o2PQEAF7EAN9n-65">
          <mxGeometry relative="1" as="geometry">
            <Array as="points">
              <mxPoint x="-3782" y="265" />
              <mxPoint x="-1288" y="265" />
            </Array>
          </mxGeometry>
        </mxCell>
        <mxCell id="5CwEVVTh2fKSS4IKN6zt-51" style="edgeStyle=orthogonalEdgeStyle;rounded=0;orthogonalLoop=1;jettySize=auto;html=1;entryX=0.5;entryY=0;entryDx=0;entryDy=0;entryPerimeter=0;" edge="1" parent="1" source="M5vJF03o2PQEAF7EAN9n-85" target="M5vJF03o2PQEAF7EAN9n-59">
          <mxGeometry relative="1" as="geometry">
            <Array as="points">
              <mxPoint x="-1215" y="1167" />
              <mxPoint x="-1055" y="1167" />
            </Array>
          </mxGeometry>
        </mxCell>
        <mxCell id="5CwEVVTh2fKSS4IKN6zt-52" style="edgeStyle=orthogonalEdgeStyle;rounded=0;orthogonalLoop=1;jettySize=auto;html=1;entryX=0.5;entryY=0;entryDx=0;entryDy=0;entryPerimeter=0;" edge="1" parent="1" source="M5vJF03o2PQEAF7EAN9n-37" target="M5vJF03o2PQEAF7EAN9n-61">
          <mxGeometry relative="1" as="geometry" />
        </mxCell>
        <mxCell id="5CwEVVTh2fKSS4IKN6zt-53" style="edgeStyle=orthogonalEdgeStyle;rounded=0;orthogonalLoop=1;jettySize=auto;html=1;entryX=0.5;entryY=0;entryDx=0;entryDy=0;entryPerimeter=0;" edge="1" parent="1" source="M5vJF03o2PQEAF7EAN9n-55" target="M5vJF03o2PQEAF7EAN9n-63">
          <mxGeometry relative="1" as="geometry" />
        </mxCell>
        <mxCell id="5CwEVVTh2fKSS4IKN6zt-54" style="edgeStyle=orthogonalEdgeStyle;rounded=0;orthogonalLoop=1;jettySize=auto;html=1;entryX=0.5;entryY=1;entryDx=0;entryDy=0;entryPerimeter=0;" edge="1" parent="1" source="M5vJF03o2PQEAF7EAN9n-61" target="M5vJF03o2PQEAF7EAN9n-62">
          <mxGeometry relative="1" as="geometry" />
        </mxCell>
        <mxCell id="5CwEVVTh2fKSS4IKN6zt-55" style="edgeStyle=orthogonalEdgeStyle;rounded=0;orthogonalLoop=1;jettySize=auto;html=1;entryX=0.5;entryY=1;entryDx=0;entryDy=0;entryPerimeter=0;" edge="1" parent="1" source="M5vJF03o2PQEAF7EAN9n-74" target="M5vJF03o2PQEAF7EAN9n-62">
          <mxGeometry relative="1" as="geometry">
            <Array as="points">
              <mxPoint x="-3083" y="920" />
              <mxPoint x="-2979" y="920" />
            </Array>
          </mxGeometry>
        </mxCell>
        <mxCell id="5CwEVVTh2fKSS4IKN6zt-56" style="edgeStyle=orthogonalEdgeStyle;rounded=0;orthogonalLoop=1;jettySize=auto;html=1;entryX=0.5;entryY=0;entryDx=0;entryDy=0;entryPerimeter=0;" edge="1" parent="1" source="M5vJF03o2PQEAF7EAN9n-84" target="M5vJF03o2PQEAF7EAN9n-74">
          <mxGeometry relative="1" as="geometry" />
        </mxCell>
        <mxCell id="5CwEVVTh2fKSS4IKN6zt-57" value="sortUsersByFieldGUI" style="strokeWidth=2;html=1;shape=mxgraph.flowchart.terminator;whiteSpace=wrap;fontSize=10;" vertex="1" parent="1">
          <mxGeometry x="-3406" y="311" width="100" height="50" as="geometry" />
        </mxCell>
        <mxCell id="5CwEVVTh2fKSS4IKN6zt-58" style="edgeStyle=orthogonalEdgeStyle;rounded=0;orthogonalLoop=1;jettySize=auto;html=1;entryX=0.5;entryY=0;entryDx=0;entryDy=0;entryPerimeter=0;" edge="1" parent="1" source="M5vJF03o2PQEAF7EAN9n-8" target="5CwEVVTh2fKSS4IKN6zt-57">
          <mxGeometry relative="1" as="geometry">
            <Array as="points">
              <mxPoint x="-3782" y="265" />
              <mxPoint x="-3356" y="265" />
            </Array>
          </mxGeometry>
        </mxCell>
        <mxCell id="5CwEVVTh2fKSS4IKN6zt-59" style="edgeStyle=orthogonalEdgeStyle;rounded=0;orthogonalLoop=1;jettySize=auto;html=1;entryX=0.5;entryY=0;entryDx=0;entryDy=0;entryPerimeter=0;" edge="1" parent="1" source="M5vJF03o2PQEAF7EAN9n-74" target="M5vJF03o2PQEAF7EAN9n-66">
          <mxGeometry relative="1" as="geometry">
            <Array as="points">
              <mxPoint x="-3083" y="1103" />
              <mxPoint x="-2604" y="1103" />
            </Array>
          </mxGeometry>
        </mxCell>
        <mxCell id="5CwEVVTh2fKSS4IKN6zt-60" style="edgeStyle=orthogonalEdgeStyle;rounded=0;orthogonalLoop=1;jettySize=auto;html=1;entryX=0.5;entryY=0;entryDx=0;entryDy=0;entryPerimeter=0;" edge="1" parent="1" source="M5vJF03o2PQEAF7EAN9n-32" target="M5vJF03o2PQEAF7EAN9n-66">
          <mxGeometry relative="1" as="geometry">
            <Array as="points">
              <mxPoint x="-2110" y="388" />
              <mxPoint x="-2603" y="388" />
            </Array>
          </mxGeometry>
        </mxCell>
        <mxCell id="5CwEVVTh2fKSS4IKN6zt-61" style="edgeStyle=orthogonalEdgeStyle;rounded=0;orthogonalLoop=1;jettySize=auto;html=1;entryX=0.5;entryY=0;entryDx=0;entryDy=0;entryPerimeter=0;" edge="1" parent="1" source="5CwEVVTh2fKSS4IKN6zt-57" target="M5vJF03o2PQEAF7EAN9n-76">
          <mxGeometry relative="1" as="geometry" />
        </mxCell>
        <mxCell id="5CwEVVTh2fKSS4IKN6zt-62" style="edgeStyle=orthogonalEdgeStyle;rounded=0;orthogonalLoop=1;jettySize=auto;html=1;entryX=0.5;entryY=0;entryDx=0;entryDy=0;entryPerimeter=0;" edge="1" parent="1" source="M5vJF03o2PQEAF7EAN9n-76" target="M5vJF03o2PQEAF7EAN9n-75">
          <mxGeometry relative="1" as="geometry" />
        </mxCell>
        <mxCell id="5CwEVVTh2fKSS4IKN6zt-63" style="edgeStyle=orthogonalEdgeStyle;rounded=0;orthogonalLoop=1;jettySize=auto;html=1;entryX=0.5;entryY=0;entryDx=0;entryDy=0;entryPerimeter=0;" edge="1" parent="1" source="M5vJF03o2PQEAF7EAN9n-72" target="M5vJF03o2PQEAF7EAN9n-22">
          <mxGeometry relative="1" as="geometry">
            <Array as="points">
              <mxPoint x="-3735" y="963" />
              <mxPoint x="-3657" y="963" />
            </Array>
          </mxGeometry>
        </mxCell>
        <mxCell id="5CwEVVTh2fKSS4IKN6zt-64" style="edgeStyle=orthogonalEdgeStyle;rounded=0;orthogonalLoop=1;jettySize=auto;html=1;entryX=0.5;entryY=0;entryDx=0;entryDy=0;entryPerimeter=0;" edge="1" parent="1" source="M5vJF03o2PQEAF7EAN9n-73" target="M5vJF03o2PQEAF7EAN9n-22">
          <mxGeometry relative="1" as="geometry">
            <Array as="points">
              <mxPoint x="-3587" y="949" />
              <mxPoint x="-3657" y="949" />
            </Array>
          </mxGeometry>
        </mxCell>
        <mxCell id="5CwEVVTh2fKSS4IKN6zt-65" style="edgeStyle=orthogonalEdgeStyle;rounded=0;orthogonalLoop=1;jettySize=auto;html=1;entryX=0.5;entryY=0;entryDx=0;entryDy=0;entryPerimeter=0;" edge="1" parent="1" source="M5vJF03o2PQEAF7EAN9n-31" target="M5vJF03o2PQEAF7EAN9n-18">
          <mxGeometry relative="1" as="geometry">
            <Array as="points">
              <mxPoint x="-1751" y="1149" />
              <mxPoint x="-1615" y="1149" />
            </Array>
          </mxGeometry>
        </mxCell>
        <mxCell id="5CwEVVTh2fKSS4IKN6zt-66" style="edgeStyle=orthogonalEdgeStyle;rounded=0;orthogonalLoop=1;jettySize=auto;html=1;entryX=0.5;entryY=0;entryDx=0;entryDy=0;entryPerimeter=0;" edge="1" parent="1" source="M5vJF03o2PQEAF7EAN9n-85" target="M5vJF03o2PQEAF7EAN9n-18">
          <mxGeometry relative="1" as="geometry">
            <Array as="points">
              <mxPoint x="-1215" y="1108" />
              <mxPoint x="-1615" y="1108" />
            </Array>
          </mxGeometry>
        </mxCell>
        <mxCell id="5CwEVVTh2fKSS4IKN6zt-67" style="edgeStyle=orthogonalEdgeStyle;rounded=0;orthogonalLoop=1;jettySize=auto;html=1;entryX=0.5;entryY=0;entryDx=0;entryDy=0;entryPerimeter=0;" edge="1" parent="1" source="M5vJF03o2PQEAF7EAN9n-18" target="M5vJF03o2PQEAF7EAN9n-19">
          <mxGeometry relative="1" as="geometry" />
        </mxCell>
        <mxCell id="5CwEVVTh2fKSS4IKN6zt-68" style="edgeStyle=orthogonalEdgeStyle;rounded=0;orthogonalLoop=1;jettySize=auto;html=1;entryX=0.5;entryY=0;entryDx=0;entryDy=0;entryPerimeter=0;" edge="1" parent="1" source="M5vJF03o2PQEAF7EAN9n-18" target="M5vJF03o2PQEAF7EAN9n-21">
          <mxGeometry relative="1" as="geometry">
            <Array as="points">
              <mxPoint x="-1615" y="1302" />
              <mxPoint x="-1468" y="1302" />
            </Array>
          </mxGeometry>
        </mxCell>
        <mxCell id="5CwEVVTh2fKSS4IKN6zt-69" style="edgeStyle=orthogonalEdgeStyle;rounded=0;orthogonalLoop=1;jettySize=auto;html=1;entryX=0.5;entryY=0;entryDx=0;entryDy=0;entryPerimeter=0;" edge="1" parent="1" source="M5vJF03o2PQEAF7EAN9n-18" target="M5vJF03o2PQEAF7EAN9n-20">
          <mxGeometry relative="1" as="geometry">
            <Array as="points">
              <mxPoint x="-1615" y="1302" />
              <mxPoint x="-1321" y="1302" />
            </Array>
          </mxGeometry>
        </mxCell>
        <mxCell id="5CwEVVTh2fKSS4IKN6zt-70" value="printProfession" style="strokeWidth=2;html=1;shape=mxgraph.flowchart.terminator;whiteSpace=wrap;fontSize=10;" vertex="1" parent="1">
          <mxGeometry x="-5735" y="1562" width="100" height="50" as="geometry" />
        </mxCell>
        <mxCell id="5CwEVVTh2fKSS4IKN6zt-72" style="edgeStyle=orthogonalEdgeStyle;rounded=0;orthogonalLoop=1;jettySize=auto;html=1;" edge="1" parent="1" source="5CwEVVTh2fKSS4IKN6zt-71" target="5CwEVVTh2fKSS4IKN6zt-70">
          <mxGeometry relative="1" as="geometry" />
        </mxCell>
        <mxCell id="5CwEVVTh2fKSS4IKN6zt-71" value="printAllProfessions" style="strokeWidth=2;html=1;shape=mxgraph.flowchart.terminator;whiteSpace=wrap;fontSize=10;" vertex="1" parent="1">
          <mxGeometry x="-5735" y="1451" width="100" height="50" as="geometry" />
        </mxCell>
        <mxCell id="5CwEVVTh2fKSS4IKN6zt-73" value="printUser" style="strokeWidth=2;html=1;shape=mxgraph.flowchart.terminator;whiteSpace=wrap;fontSize=10;" vertex="1" parent="1">
          <mxGeometry x="-951" y="1562" width="100" height="50" as="geometry" />
        </mxCell>
        <mxCell id="5CwEVVTh2fKSS4IKN6zt-74" style="edgeStyle=orthogonalEdgeStyle;rounded=0;orthogonalLoop=1;jettySize=auto;html=1;" edge="1" source="5CwEVVTh2fKSS4IKN6zt-75" target="5CwEVVTh2fKSS4IKN6zt-73" parent="1">
          <mxGeometry relative="1" as="geometry" />
        </mxCell>
        <mxCell id="5CwEVVTh2fKSS4IKN6zt-75" value="printAllUsers" style="strokeWidth=2;html=1;shape=mxgraph.flowchart.terminator;whiteSpace=wrap;fontSize=10;" vertex="1" parent="1">
          <mxGeometry x="-951" y="1451" width="100" height="50" as="geometry" />
        </mxCell>
        <mxCell id="5CwEVVTh2fKSS4IKN6zt-76" style="edgeStyle=orthogonalEdgeStyle;rounded=0;orthogonalLoop=1;jettySize=auto;html=1;entryX=0.5;entryY=0;entryDx=0;entryDy=0;entryPerimeter=0;" edge="1" parent="1" source="M5vJF03o2PQEAF7EAN9n-8" target="5CwEVVTh2fKSS4IKN6zt-75">
          <mxGeometry relative="1" as="geometry">
            <Array as="points">
              <mxPoint x="-3782" y="265" />
              <mxPoint x="-901" y="265" />
            </Array>
          </mxGeometry>
        </mxCell>
        <mxCell id="5CwEVVTh2fKSS4IKN6zt-77" style="edgeStyle=orthogonalEdgeStyle;rounded=0;orthogonalLoop=1;jettySize=auto;html=1;entryX=0.5;entryY=0;entryDx=0;entryDy=0;entryPerimeter=0;" edge="1" parent="1" source="M5vJF03o2PQEAF7EAN9n-8" target="5CwEVVTh2fKSS4IKN6zt-71">
          <mxGeometry relative="1" as="geometry">
            <Array as="points">
              <mxPoint x="-3782" y="265" />
              <mxPoint x="-5685" y="265" />
            </Array>
          </mxGeometry>
        </mxCell>
        <mxCell id="5CwEVVTh2fKSS4IKN6zt-78" style="edgeStyle=orthogonalEdgeStyle;rounded=0;orthogonalLoop=1;jettySize=auto;html=1;entryX=0.5;entryY=0;entryDx=0;entryDy=0;entryPerimeter=0;" edge="1" parent="1" source="M5vJF03o2PQEAF7EAN9n-24" target="5CwEVVTh2fKSS4IKN6zt-71">
          <mxGeometry relative="1" as="geometry">
            <Array as="points">
              <mxPoint x="-4962" y="1392" />
              <mxPoint x="-5685" y="1392" />
            </Array>
          </mxGeometry>
        </mxCell>
        <mxCell id="5CwEVVTh2fKSS4IKN6zt-79" style="edgeStyle=orthogonalEdgeStyle;rounded=0;orthogonalLoop=1;jettySize=auto;html=1;entryX=0.5;entryY=0;entryDx=0;entryDy=0;entryPerimeter=0;" edge="1" parent="1" source="M5vJF03o2PQEAF7EAN9n-55" target="5CwEVVTh2fKSS4IKN6zt-70">
          <mxGeometry relative="1" as="geometry">
            <Array as="points">
              <mxPoint x="-4852" y="1529" />
              <mxPoint x="-5685" y="1529" />
            </Array>
          </mxGeometry>
        </mxCell>
        <mxCell id="5CwEVVTh2fKSS4IKN6zt-80" style="edgeStyle=orthogonalEdgeStyle;rounded=0;orthogonalLoop=1;jettySize=auto;html=1;entryX=0.5;entryY=0;entryDx=0;entryDy=0;entryPerimeter=0;" edge="1" parent="1" source="M5vJF03o2PQEAF7EAN9n-58" target="5CwEVVTh2fKSS4IKN6zt-70">
          <mxGeometry relative="1" as="geometry">
            <Array as="points">
              <mxPoint x="-4694" y="1529" />
              <mxPoint x="-5685" y="1529" />
            </Array>
          </mxGeometry>
        </mxCell>
        <mxCell id="5CwEVVTh2fKSS4IKN6zt-83" style="edgeStyle=orthogonalEdgeStyle;rounded=0;orthogonalLoop=1;jettySize=auto;html=1;entryX=0.5;entryY=0;entryDx=0;entryDy=0;entryPerimeter=0;" edge="1" parent="1" source="M5vJF03o2PQEAF7EAN9n-84" target="5CwEVVTh2fKSS4IKN6zt-75">
          <mxGeometry relative="1" as="geometry">
            <Array as="points">
              <mxPoint x="-3171" y="1429" />
              <mxPoint x="-901" y="1429" />
            </Array>
          </mxGeometry>
        </mxCell>
        <mxCell id="5CwEVVTh2fKSS4IKN6zt-84" style="edgeStyle=orthogonalEdgeStyle;rounded=0;orthogonalLoop=1;jettySize=auto;html=1;entryX=0.5;entryY=0;entryDx=0;entryDy=0;entryPerimeter=0;" edge="1" parent="1" source="M5vJF03o2PQEAF7EAN9n-32" target="5CwEVVTh2fKSS4IKN6zt-75">
          <mxGeometry relative="1" as="geometry">
            <Array as="points">
              <mxPoint x="-2110" y="1429" />
              <mxPoint x="-901" y="1429" />
            </Array>
          </mxGeometry>
        </mxCell>
        <mxCell id="5CwEVVTh2fKSS4IKN6zt-85" style="edgeStyle=orthogonalEdgeStyle;rounded=0;orthogonalLoop=1;jettySize=auto;html=1;entryX=0.5;entryY=0;entryDx=0;entryDy=0;entryPerimeter=0;" edge="1" parent="1" source="M5vJF03o2PQEAF7EAN9n-31" target="5CwEVVTh2fKSS4IKN6zt-75">
          <mxGeometry relative="1" as="geometry">
            <Array as="points">
              <mxPoint x="-1751" y="1429" />
              <mxPoint x="-901" y="1429" />
            </Array>
          </mxGeometry>
        </mxCell>
        <mxCell id="5CwEVVTh2fKSS4IKN6zt-86" style="edgeStyle=orthogonalEdgeStyle;rounded=0;orthogonalLoop=1;jettySize=auto;html=1;entryX=0.5;entryY=0;entryDx=0;entryDy=0;entryPerimeter=0;" edge="1" parent="1" source="M5vJF03o2PQEAF7EAN9n-84" target="5CwEVVTh2fKSS4IKN6zt-73">
          <mxGeometry relative="1" as="geometry">
            <Array as="points">
              <mxPoint x="-3171" y="1520" />
              <mxPoint x="-901" y="1520" />
            </Array>
          </mxGeometry>
        </mxCell>
        <mxCell id="5CwEVVTh2fKSS4IKN6zt-87" style="edgeStyle=orthogonalEdgeStyle;rounded=0;orthogonalLoop=1;jettySize=auto;html=1;entryX=0.5;entryY=0;entryDx=0;entryDy=0;entryPerimeter=0;" edge="1" parent="1" source="M5vJF03o2PQEAF7EAN9n-73" target="5CwEVVTh2fKSS4IKN6zt-73">
          <mxGeometry relative="1" as="geometry">
            <Array as="points">
              <mxPoint x="-3587" y="1520" />
              <mxPoint x="-901" y="1520" />
            </Array>
          </mxGeometry>
        </mxCell>
        <mxCell id="5CwEVVTh2fKSS4IKN6zt-88" style="edgeStyle=orthogonalEdgeStyle;rounded=0;orthogonalLoop=1;jettySize=auto;html=1;entryX=0.5;entryY=0;entryDx=0;entryDy=0;entryPerimeter=0;" edge="1" parent="1" source="M5vJF03o2PQEAF7EAN9n-72" target="5CwEVVTh2fKSS4IKN6zt-73">
          <mxGeometry relative="1" as="geometry">
            <Array as="points">
              <mxPoint x="-3733" y="1520" />
              <mxPoint x="-901" y="1520" />
            </Array>
          </mxGeometry>
        </mxCell>
        <mxCell id="5CwEVVTh2fKSS4IKN6zt-89" style="edgeStyle=orthogonalEdgeStyle;rounded=0;orthogonalLoop=1;jettySize=auto;html=1;entryX=0.5;entryY=0;entryDx=0;entryDy=0;entryPerimeter=0;" edge="1" parent="1" source="M5vJF03o2PQEAF7EAN9n-71" target="5CwEVVTh2fKSS4IKN6zt-73">
          <mxGeometry relative="1" as="geometry">
            <Array as="points">
              <mxPoint x="-3849" y="1520" />
              <mxPoint x="-901" y="1520" />
            </Array>
          </mxGeometry>
        </mxCell>
        <mxCell id="5CwEVVTh2fKSS4IKN6zt-90" style="edgeStyle=orthogonalEdgeStyle;rounded=0;orthogonalLoop=1;jettySize=auto;html=1;entryX=0.5;entryY=0;entryDx=0;entryDy=0;entryPerimeter=0;" edge="1" parent="1" source="M5vJF03o2PQEAF7EAN9n-70" target="5CwEVVTh2fKSS4IKN6zt-73">
          <mxGeometry relative="1" as="geometry">
            <Array as="points">
              <mxPoint x="-3983" y="1520" />
              <mxPoint x="-901" y="1520" />
            </Array>
          </mxGeometry>
        </mxCell>
        <mxCell id="5CwEVVTh2fKSS4IKN6zt-91" style="edgeStyle=orthogonalEdgeStyle;rounded=0;orthogonalLoop=1;jettySize=auto;html=1;entryX=0.5;entryY=0;entryDx=0;entryDy=0;entryPerimeter=0;" edge="1" parent="1" source="M5vJF03o2PQEAF7EAN9n-69" target="5CwEVVTh2fKSS4IKN6zt-73">
          <mxGeometry relative="1" as="geometry">
            <Array as="points">
              <mxPoint x="-4114" y="1520" />
              <mxPoint x="-901" y="1520" />
            </Array>
          </mxGeometry>
        </mxCell>
        <mxCell id="5CwEVVTh2fKSS4IKN6zt-92" style="edgeStyle=orthogonalEdgeStyle;rounded=0;orthogonalLoop=1;jettySize=auto;html=1;entryX=0.5;entryY=0;entryDx=0;entryDy=0;entryPerimeter=0;" edge="1" parent="1" source="M5vJF03o2PQEAF7EAN9n-68" target="5CwEVVTh2fKSS4IKN6zt-73">
          <mxGeometry relative="1" as="geometry">
            <Array as="points">
              <mxPoint x="-4248" y="1520" />
              <mxPoint x="-901" y="1520" />
            </Array>
          </mxGeometry>
        </mxCell>
      </root>
    </mxGraphModel>
  </diagram>
</mxfile>
